<mxfile host="app.diagrams.net" modified="2023-06-12T17:47:22.340Z" agent="Mozilla/5.0 (Macintosh; Intel Mac OS X 10_15_7) AppleWebKit/537.36 (KHTML, like Gecko) Chrome/114.0.0.0 Safari/537.36" etag="FRCuf7wl4quFL3x9xERG" version="21.3.7" type="device">
  <diagram name="Page-1" id="rbiUo5bFybXOO1fcTCTT">
    <mxGraphModel dx="1242" dy="795" grid="1" gridSize="10" guides="1" tooltips="1" connect="1" arrows="1" fold="1" page="1" pageScale="1" pageWidth="850" pageHeight="1100" math="0" shadow="0">
      <root>
        <mxCell id="0" />
        <mxCell id="1" parent="0" />
        <mxCell id="9J3SF0-3zK-d3_jPCRng-8" value="" style="rounded=0;whiteSpace=wrap;html=1;fillColor=#CCFF99;" parent="1" vertex="1">
          <mxGeometry x="40" y="520" width="760" height="310" as="geometry" />
        </mxCell>
        <mxCell id="9J3SF0-3zK-d3_jPCRng-41" value="" style="group" parent="1" vertex="1" connectable="0">
          <mxGeometry x="40" y="320" width="120" height="80" as="geometry" />
        </mxCell>
        <mxCell id="9J3SF0-3zK-d3_jPCRng-36" value="" style="rounded=0;whiteSpace=wrap;html=1;fillColor=#66B2FF;movable=1;resizable=1;rotatable=1;deletable=1;editable=1;locked=0;connectable=1;" parent="9J3SF0-3zK-d3_jPCRng-41" vertex="1">
          <mxGeometry width="120" height="80" as="geometry" />
        </mxCell>
        <mxCell id="9J3SF0-3zK-d3_jPCRng-38" value="Andi" style="text;html=1;strokeColor=none;fillColor=none;align=center;verticalAlign=middle;whiteSpace=wrap;rounded=0;movable=1;resizable=1;rotatable=1;deletable=1;editable=1;locked=0;connectable=1;" parent="9J3SF0-3zK-d3_jPCRng-41" vertex="1">
          <mxGeometry x="30" y="25" width="60" height="30" as="geometry" />
        </mxCell>
        <mxCell id="9J3SF0-3zK-d3_jPCRng-53" value="" style="group" parent="1" vertex="1" connectable="0">
          <mxGeometry x="200" y="320" width="120" height="80" as="geometry" />
        </mxCell>
        <mxCell id="9J3SF0-3zK-d3_jPCRng-54" value="" style="rounded=0;whiteSpace=wrap;html=1;fillColor=#66B2FF;movable=1;resizable=1;rotatable=1;deletable=1;editable=1;locked=0;connectable=1;" parent="9J3SF0-3zK-d3_jPCRng-53" vertex="1">
          <mxGeometry width="120" height="80" as="geometry" />
        </mxCell>
        <mxCell id="9J3SF0-3zK-d3_jPCRng-55" value="Discovery_API" style="text;html=1;strokeColor=none;fillColor=none;align=center;verticalAlign=middle;whiteSpace=wrap;rounded=0;movable=1;resizable=1;rotatable=1;deletable=1;editable=1;locked=0;connectable=1;" parent="9J3SF0-3zK-d3_jPCRng-53" vertex="1">
          <mxGeometry x="30" y="25" width="60" height="30" as="geometry" />
        </mxCell>
        <mxCell id="9J3SF0-3zK-d3_jPCRng-56" value="Redis" style="rounded=0;whiteSpace=wrap;html=1;fillColor=#CCFF99;" parent="1" vertex="1">
          <mxGeometry x="40" y="160" width="80" height="40" as="geometry" />
        </mxCell>
        <mxCell id="9J3SF0-3zK-d3_jPCRng-65" value="Postgres" style="rounded=0;whiteSpace=wrap;html=1;fillColor=#CCFF99;" parent="1" vertex="1">
          <mxGeometry x="195" y="160" width="80" height="40" as="geometry" />
        </mxCell>
        <mxCell id="9J3SF0-3zK-d3_jPCRng-102" value="&lt;font color=&quot;#ffffff&quot;&gt;Event Stream&lt;/font&gt;" style="rounded=0;whiteSpace=wrap;html=1;fillColor=#006600;" parent="1" vertex="1">
          <mxGeometry x="75" y="690" width="700" height="60" as="geometry" />
        </mxCell>
        <mxCell id="9J3SF0-3zK-d3_jPCRng-108" value="" style="group" parent="1" vertex="1" connectable="0">
          <mxGeometry x="340" y="580" width="430" height="95" as="geometry" />
        </mxCell>
        <mxCell id="9J3SF0-3zK-d3_jPCRng-104" value="" style="rounded=0;whiteSpace=wrap;html=1;fillColor=#97D077;" parent="9J3SF0-3zK-d3_jPCRng-108" vertex="1">
          <mxGeometry width="430" height="90" as="geometry" />
        </mxCell>
        <mxCell id="9J3SF0-3zK-d3_jPCRng-103" value="&lt;font color=&quot;#ffffff&quot;&gt;Raw Topic&lt;/font&gt;" style="rounded=0;whiteSpace=wrap;html=1;fillColor=#006600;" parent="9J3SF0-3zK-d3_jPCRng-108" vertex="1">
          <mxGeometry x="20" y="20" width="70" height="35" as="geometry" />
        </mxCell>
        <mxCell id="9J3SF0-3zK-d3_jPCRng-106" value="&lt;font color=&quot;#ffffff&quot;&gt;Transformed Topic&lt;/font&gt;" style="rounded=0;whiteSpace=wrap;html=1;fillColor=#006600;" parent="9J3SF0-3zK-d3_jPCRng-108" vertex="1">
          <mxGeometry x="155" y="20" width="115" height="35" as="geometry" />
        </mxCell>
        <mxCell id="9J3SF0-3zK-d3_jPCRng-107" value="&lt;font color=&quot;#ffffff&quot;&gt;Validated Topic&lt;/font&gt;" style="rounded=0;whiteSpace=wrap;html=1;fillColor=#006600;" parent="9J3SF0-3zK-d3_jPCRng-108" vertex="1">
          <mxGeometry x="305" y="20" width="115" height="35" as="geometry" />
        </mxCell>
        <mxCell id="9J3SF0-3zK-d3_jPCRng-121" style="edgeStyle=orthogonalEdgeStyle;rounded=0;orthogonalLoop=1;jettySize=auto;html=1;entryX=0.25;entryY=1;entryDx=0;entryDy=0;" parent="1" source="9J3SF0-3zK-d3_jPCRng-6" target="9J3SF0-3zK-d3_jPCRng-54" edge="1">
          <mxGeometry relative="1" as="geometry">
            <Array as="points">
              <mxPoint x="170" y="430" />
              <mxPoint x="230" y="430" />
            </Array>
          </mxGeometry>
        </mxCell>
        <mxCell id="9J3SF0-3zK-d3_jPCRng-128" style="edgeStyle=orthogonalEdgeStyle;rounded=0;orthogonalLoop=1;jettySize=auto;html=1;startArrow=classic;startFill=1;" parent="1" source="9J3SF0-3zK-d3_jPCRng-6" target="9J3SF0-3zK-d3_jPCRng-102" edge="1">
          <mxGeometry relative="1" as="geometry">
            <Array as="points">
              <mxPoint x="120" y="690" />
              <mxPoint x="120" y="690" />
            </Array>
          </mxGeometry>
        </mxCell>
        <mxCell id="ZxNKODZLQWNlTjTZxuV1-42" style="edgeStyle=orthogonalEdgeStyle;rounded=0;orthogonalLoop=1;jettySize=auto;html=1;" parent="1" source="9J3SF0-3zK-d3_jPCRng-6" edge="1">
          <mxGeometry relative="1" as="geometry">
            <mxPoint x="140" y="400" as="targetPoint" />
            <Array as="points">
              <mxPoint x="140" y="400" />
            </Array>
          </mxGeometry>
        </mxCell>
        <mxCell id="9J3SF0-3zK-d3_jPCRng-6" value="Organization_Update" style="rounded=0;whiteSpace=wrap;html=1;fillColor=#FF9999;" parent="1" vertex="1">
          <mxGeometry x="60" y="570" width="120" height="40" as="geometry" />
        </mxCell>
        <mxCell id="9J3SF0-3zK-d3_jPCRng-122" style="edgeStyle=orthogonalEdgeStyle;rounded=0;orthogonalLoop=1;jettySize=auto;html=1;entryX=0.25;entryY=0;entryDx=0;entryDy=0;" parent="1" source="9J3SF0-3zK-d3_jPCRng-36" target="9J3SF0-3zK-d3_jPCRng-6" edge="1">
          <mxGeometry relative="1" as="geometry">
            <Array as="points">
              <mxPoint x="90" y="450" />
              <mxPoint x="90" y="450" />
            </Array>
          </mxGeometry>
        </mxCell>
        <mxCell id="9J3SF0-3zK-d3_jPCRng-123" value="Send" style="rounded=0;whiteSpace=wrap;html=1;" parent="1" vertex="1">
          <mxGeometry x="60" y="460" width="50" height="20" as="geometry" />
        </mxCell>
        <mxCell id="9J3SF0-3zK-d3_jPCRng-126" value="Receieve" style="rounded=0;whiteSpace=wrap;html=1;" parent="1" vertex="1">
          <mxGeometry x="130" y="460" width="70" height="20" as="geometry" />
        </mxCell>
        <mxCell id="ZxNKODZLQWNlTjTZxuV1-7" value="Organization Update" style="rounded=0;whiteSpace=wrap;html=1;fontSize=29;" parent="1" vertex="1">
          <mxGeometry x="195" y="40" width="440" height="80" as="geometry" />
        </mxCell>
        <mxCell id="ZxNKODZLQWNlTjTZxuV1-37" style="edgeStyle=orthogonalEdgeStyle;rounded=0;orthogonalLoop=1;jettySize=auto;html=1;" parent="1" source="9J3SF0-3zK-d3_jPCRng-54" edge="1">
          <mxGeometry relative="1" as="geometry">
            <Array as="points">
              <mxPoint x="240" y="200" />
            </Array>
            <mxPoint x="240" y="200" as="targetPoint" />
          </mxGeometry>
        </mxCell>
        <mxCell id="RzSpJXAJUinbb4qlOZgp-2" style="edgeStyle=orthogonalEdgeStyle;rounded=0;orthogonalLoop=1;jettySize=auto;html=1;entryX=0.5;entryY=1;entryDx=0;entryDy=0;" edge="1" parent="1" source="9J3SF0-3zK-d3_jPCRng-36" target="9J3SF0-3zK-d3_jPCRng-56">
          <mxGeometry relative="1" as="geometry">
            <Array as="points">
              <mxPoint x="80" y="290" />
              <mxPoint x="80" y="290" />
            </Array>
          </mxGeometry>
        </mxCell>
        <mxCell id="9J3SF0-3zK-d3_jPCRng-87" value="Update Organization Entity" style="rounded=0;whiteSpace=wrap;html=1;fontSize=10;" parent="1" vertex="1">
          <mxGeometry x="25" y="230" width="110" height="30" as="geometry" />
        </mxCell>
        <mxCell id="RzSpJXAJUinbb4qlOZgp-3" style="edgeStyle=orthogonalEdgeStyle;rounded=0;orthogonalLoop=1;jettySize=auto;html=1;entryX=0.25;entryY=1;entryDx=0;entryDy=0;" edge="1" parent="1" source="9J3SF0-3zK-d3_jPCRng-36" target="9J3SF0-3zK-d3_jPCRng-65">
          <mxGeometry relative="1" as="geometry">
            <Array as="points">
              <mxPoint x="100" y="290" />
              <mxPoint x="215" y="290" />
            </Array>
          </mxGeometry>
        </mxCell>
        <mxCell id="RzSpJXAJUinbb4qlOZgp-4" value="Update Organization Entity" style="rounded=0;whiteSpace=wrap;html=1;fontSize=10;" vertex="1" parent="1">
          <mxGeometry x="180" y="230" width="110" height="30" as="geometry" />
        </mxCell>
      </root>
    </mxGraphModel>
  </diagram>
</mxfile>
